<?xml version="1.0" encoding="utf-8"?>
<!-- Generator: Adobe Illustrator 21.1.0, SVG Export Plug-In . SVG Version: 6.00 Build 0)  -->
<svg version="1.1" id="Wappenschild" xmlns="http://www.w3.org/2000/svg" xmlns:xlink="http://www.w3.org/1999/xlink" x="0px"
	 y="0px" viewBox="0 0 572 846" style="enable-background:new 0 0 572 846;" xml:space="preserve">
<style type="text/css">
	.st0{stroke:#000000;stroke-width:3;}
	.st1{fill:none;stroke:#000000;stroke-width:2;}
	.st2{stroke:#000000;}
	.st3{fill:#FFFFFF;stroke:#000000;stroke-width:2;}
	.st4{fill:#FFFFFF;stroke:#000000;stroke-width:3;}
	.st5{stroke:#000000;stroke-width:2;}
	.st6{clip-path:url(#SVGID_2_);}
	.st7{clip-path:url(#SVGID_4_);}
</style>
<title>Wappen des Bezirks Friedrichshain-Kreuzberg</title>
<desc>Das Wappen des Berliner Bezirks Friedrichshain-Kreuzberg</desc>
<g id="Turm">
	<path class="st0" d="M3,3h30v24h30V3h30v24h30V3h30v45l-20,17v142H23V65h110H23L3,48V3z"/>
	<path class="st1" d="M4,28h148v20H4 M42,28v20h36V28h36v20 M30,48l12,16h24l-4-16h32l-4,16h24l12-16 M24,178h108v-28H24v-28h108V94
		H24h54v28H42V94h18V66h36v28h18v28H96v28h18v28H96v28H60v-28H42v-28h18v-28v28h18v28"/>
	<path class="st2" d="M70,150h16v-34c0-4.4-3.6-8-8-8s-8,3.6-8,8V150z"/>
</g>
<g id="Mauer">
	<path class="st0" d="M133,99h34v22h30V99h34v108h-98V99z"/>
	<path class="st1" d="M134,122h96v28h-96v28h96 M182,122v28h20v28 M162,150v28h20v28"/>
</g>
<g>
	<g id="Turm_1_">
		<path class="st0" d="M211,3h30v24h30V3h30v24h30V3h30v45l-20,17v142H231V65h110H231l-20-17V3z"/>
		<path class="st1" d="M212,28h148v20H212 M250,28v20h36V28h36v20 M238,48l12,16h24l-4-16h32l-4,16h24l12-16 M232,178h108v-28H232
			v-28h108V94H232h54v28h-36V94h18V66h36v28h18v28h-18v28h18v28h-18v28h-36v-28h-18v-28h18v-28v28h18v28"/>
		<path class="st2" d="M278,150h16v-34c0-4.4-3.6-8-8-8s-8,3.6-8,8V150z"/>
	</g>
</g>
<g>
	<g id="Mauer_1_">
		<path class="st0" d="M341,99h34v22h30V99h34v108h-98V99z"/>
		<path class="st1" d="M342,122h96v28h-96v28h96 M390,122v28h20v28 M370,150v28h20v28"/>
	</g>
</g>
<g>
	<g id="Turm_2_">
		<path class="st0" d="M419,3h30v24h30V3h30v24h30V3h30v45l-20,17v142H439V65h110H439l-20-17V3z"/>
		<path class="st1" d="M420,28h148v20H420 M458,28v20h36V28h36v20 M446,48l12,16h24l-4-16h32l-4,16h24l12-16 M440,178h108v-28H440
			v-28h108V94H440h54v28h-36V94h18V66h36v28h18v28h-18v28h18v28h-18v28h-36v-28h-18v-28h18v-28v28h18v28"/>
		<path class="st2" d="M486,150h16v-34c0-4.4-3.6-8-8-8s-8,3.6-8,8V150z"/>
	</g>
</g>
<path class="st3" d="M244,82h84v70c0,23.2-18.8,42-42,42s-42-18.8-42-42V82z"/>
<path d="M289.3,90.5l-5.7,0.2c-0.3,0-0.5,0.2-0.5,0.5c0,2,0.4,3.4,1.9,4.4c-0.2,1.1-0.1,1.7,1.1,2.7c0.1-0.9,0.5-1.3,1.1-1.7
	c0,0,0.1,0,0.1,0c-0.1,0.4-0.1,0.9,0,1.1c0.2,0.6,1.4,0.7,1.7,0.2c0.3,0.7,0.9,0.7,1.3,0.7c0.5,0,0.7-0.3,0.9-0.7
	c0.3,0.2,0.6,0.5,0.8,0.8c0.8,1.1,1,2.6,1,3.9l-0.8,0.1v-0.6c0-0.8-1.9-0.9-2.3-0.3c-0.5-0.5-1.9-0.4-1.9,0.4v0.3
	c-0.3-0.4-0.6-0.9-0.8-1.3c-0.6,0.4-0.9,0.6-0.8,2c-0.3,0-0.5,0-0.7,0.1c0,1.5,0.7,1.9,6.2,1.8c0.1,1.5-1.4,2.4-2.5,3.1
	c-3,1.7-6.1,3.5-7.8,6.7c-1.4,2.5-1.8,5.4-1.6,8.2l1.6-0.7l0.2,0.9c-2.9,1.4-8.3,4.2-11.8,5.8c-0.9,0.4-3.1,1-3.5,0.2
	c-1.6-2.8-2.9-4.8-4.7-7c-3.3,1.5-4.8,2.8-6.1,5.9c2.6,4,7,9.8,14.2,9.8c7.4,0,13.9-2.7,15.3-3.1l0.3,1c-1,0.4-1.8,0.7-2.8,1
	c1.3,5.1,2.8,7.1,6.3,10.2l-0.7,0.5c-0.6-0.4-1.7-1.6-2.3-2.1c-7.4,3.5-10.2,7.1-12,10.7c-2,4.4-1.6,9.4-0.8,14
	c0.2,0.8-0.7,1.1-1.3,0.9c-1.7-0.4-2.7-2.1-4.3-2.7c-0.7-0.3-1.6-0.6-2.5-0.5c-1.9,2.7-1.7,4.1-1.4,7.5c2.5,1.2,5.2,1.5,8,3
	c1.8,0.7,3.6,1.9,5.7,1.6c1.2-0.1,2.4-0.9,2.5-2.2c1-4.5,2.5-9.3,5.9-12.5c1.6-1.6,3.8-2.9,5.9-3.9c-0.8-3.2-1.5-6.4-1.4-9.7l1,0
	c0.7,12.7,4.1,15.4,10.1,21.3c0.6,0.6,0.6,1.7-0.3,2.1c-1.2,0.6-2.5,0.6-3.9,0.7c-0.2,3.3,0.5,6.5,1.7,7.8c3.7-0.1,7.5-3,9.7-5.8
	c0.9-1.2,2-2.3,2.9-3.5c1.1-1.4-0.1-3.1-0.4-4.4c-0.9-3.7-1.3-14.4-1.4-15.9l1.3,0l0.2-2.7c-3.9-4.8-3.2-12.3-4.8-17.2
	c-0.6-2-1.3-4-1.3-6.1c0-2.8,3.2-8.1,3.1-12.9c0-2-1.1-4.6-1.1-5.8c0-3.4,2-2.7,1.9-9.8c0-2-0.3-3.4-0.8-5.5c3.5-3.6-1.3-7.3-4-5
	c-2.2-0.6-2.5-1.2-6.8-1.2C293.7,88,291.6,89,289.3,90.5z M282.6,111.8c-6.8-2-11.6-2.9-14.3-4.9c-2.7-2.1-1.6-6.5-4.8-9
	c-2.9-0.1-4.7,1.2-6,2.9c5.1,7.8-1.7,9.7,21.3,22.9C278.8,116.3,280.2,114.8,282.6,111.8z M296.7,94.9c-0.3,0-1-0.2-1.2-0.4
	c-2-3.1-2.5-2-2.8-0.9c-0.3,1-1.4,1-1-0.3c0.8-3.1,3-2.7,5.8,1.6H296.7z M303.1,91.8c0.6-0.7,1.4-1.5,2.3-1.8c1.4-0.5,1.9,0.6,0.8,1
	c-0.9,0.3-1.7,1-2.3,1.6L303.1,91.8z M285.3,95.8c0.3,0.2,0.8,0.5,1.6,0.7c-0.4,0.3-0.8,0.8-0.9,1.3
	C285.3,97.3,285.1,96.5,285.3,95.8z M289,97c0,0.3-0.1,0.6-0.2,0.7c-0.2,0.4-1.1,0.3-1.3-0.2c-0.1-0.2-0.1-0.6,0-0.9
	C288.1,96.8,288.5,96.9,289,97z M289.3,97.1c0.6,0.2,1.2,0.4,1.8,0.7c-0.1,0.3-0.3,0.6-0.7,0.6c-0.4,0-0.8,0-1-0.5
	C289.2,97.7,289.2,97.4,289.3,97.1z M288,103.1l-1.4,0.1c-0.1-0.6,0-1.2,0.5-1.6c0.3,0.5,0.5,0.9,0.9,1.3V103.1z M288.3,103.1v-0.7
	c0-0.8,1.6-0.7,1.6,0v0.6L288.3,103.1z M290.1,103v-0.6c0-0.8,1.9-0.7,1.9,0v0.5L290.1,103z"/>
<g>
	<path d="M281.3,96.8c0,5.9,8.8,3,11.6,4.4c0-0.4-0.1-0.7-0.2-1.1c-1.4-0.5-3.4-0.2-5.6-0.5c-4.3-0.7-4.9-1.9-4.9-2.8
		C282.2,95.8,281.3,95.7,281.3,96.8"/>
	<g id="Krallen">
		<path id="Kralle" d="M261.6,168.6c0,0,0.8-0.3,2.6,0.6c0.8,0.4,1.3-1.2,0.6-1.4C262.7,167.1,261.6,168.6,261.6,168.6"/>
		<g transform="translate(-25,63)">
			<path id="Kralle_1_" d="M261.1,170.1c0,0,0.8-0.3,2.6,0.6c0.8,0.4,1.3-1.2,0.6-1.4C262.1,168.6,261.1,170.1,261.1,170.1"/>
		</g>
		<g transform="translate(-44,128)">
			<path id="Kralle_2_" d="M260.6,171.6c0,0,0.8-0.3,2.6,0.6c0.8,0.4,1.3-1.2,0.6-1.4C261.7,170.1,260.6,171.6,260.6,171.6"/>
		</g>
		<g transform="translate(-46,197)">
			<path id="Kralle_3_" d="M260.6,173.2c0,0,0.8-0.3,2.6,0.6c0.8,0.4,1.3-1.2,0.6-1.4C261.6,171.7,260.6,173.2,260.6,173.2"/>
		</g>
		<g transform="translate(-37,267)">
			<path id="Kralle_4_" d="M260.8,174.8c0,0,0.8-0.3,2.6,0.6c0.8,0.4,1.3-1.2,0.6-1.4C261.8,173.3,260.8,174.8,260.8,174.8"/>
		</g>
	</g>
	<g>
		<g id="Krallen_1_">
			<path id="Kralle_5_" d="M294.3,177.6c0,0,0.7-0.6,2.7-0.3c1,0.1,0.9-1.7,0.1-1.6C294.8,175.8,294.3,177.6,294.3,177.6"/>
			<g transform="translate(-25,63)">
				<path id="Kralle_6_" d="M294.3,179.2c0,0,0.7-0.6,2.7-0.3c1,0.1,0.9-1.7,0.1-1.6C294.8,177.4,294.3,179.2,294.3,179.2"/>
			</g>
			<g transform="translate(-44,128)">
				<path id="Kralle_7_" d="M294.4,180.9c0,0,0.7-0.6,2.7-0.3c1,0.1,0.9-1.7,0.1-1.6C294.9,179.1,294.4,180.9,294.4,180.9"/>
			</g>
			<g transform="translate(-46,197)">
				<path id="Kralle_8_" d="M294.9,182.5c0,0,0.7-0.6,2.7-0.3c1,0.1,0.9-1.7,0.1-1.6C295.4,180.6,294.9,182.5,294.9,182.5"/>
			</g>
			<g transform="matrix(.9858 -.3627 .3627 .9858 152.9 556.3)">
				<path id="Kralle_9_" d="M295.7,184c0,0,0.7-0.6,2.7-0.3c1,0.1,0.9-1.7,0.1-1.6C296.2,182.2,295.7,184,295.7,184"/>
			</g>
		</g>
		<g>
			<g id="Krallen_2_">
				<path id="Kralle_10_" d="M259,120.1c0,0,0.8,0.5,1.3,3c0.3,1.2,1.7,0.2,1.4-0.6C260.8,119.8,259,120.1,259,120.1"/>
				<g transform="translate(-25,63)">
					<path id="Kralle_11_" d="M257.6,120.9c0,0,0.8,0.5,1.3,3c0.3,1.2,1.7,0.2,1.4-0.6C259.4,120.6,257.6,120.9,257.6,120.9"/>
				</g>
				<g transform="translate(-44,128)">
					<path id="Kralle_12_" d="M256.2,121.8c0,0,0.8,0.5,1.3,3c0.3,1.2,1.7,0.2,1.4-0.6C258,121.5,256.2,121.8,256.2,121.8"/>
				</g>
				<g transform="translate(-46,197)">
					<path id="Kralle_13_" d="M255,123.2c0,0,0.8,0.5,1.3,3c0.3,1.2,1.7,0.2,1.4-0.6C256.8,122.9,255,123.2,255,123.2"/>
				</g>
				<g transform="matrix(.6627 .9484 -.7177 .8958 2492 -2040)">
					<path id="Kralle_14_" d="M254,124.8c0,0,0.8,0.5,1.3,3c0.3,1.2,1.7,0.2,1.4-0.6C255.8,124.5,254,124.8,254,124.8"/>
				</g>
			</g>
			<g>
				<g id="Krallen_3_">
					<path id="Kralle_15_" d="M261.4,95.6c0,0,0.6,0.4,0.8,2.2c0.1,0.8,1.5,0.4,1.4-0.2C263,95.7,261.4,95.6,261.4,95.6"/>
					<g transform="translate(-25,63)">
						<path id="Kralle_16_" d="M260,95.9c0,0,0.6,0.4,0.8,2.2c0.1,0.8,1.5,0.4,1.4-0.2C261.7,96,260,95.9,260,95.9"/>
					</g>
					<g transform="translate(-44,128)">
						<path id="Kralle_17_" d="M258.7,96.3c0,0,0.6,0.4,0.8,2.2c0.1,0.8,1.5,0.4,1.4-0.2C260.3,96.4,258.7,96.3,258.7,96.3"/>
					</g>
					<g transform="translate(-46,197)">
						<path id="Kralle_18_" d="M257.5,97.1c0,0,0.6,0.4,0.8,2.2c0.1,0.8,1.5,0.4,1.4-0.2C259.1,97.2,257.5,97.1,257.5,97.1"/>
					</g>
					<g transform="matrix(.5009 .7395 -.7395 .5009 2724 -1656)">
						<path id="Kralle_19_" d="M256.4,98.1c0,0,0.6,0.4,0.8,2.2c0.1,0.8,1.5,0.4,1.4-0.2C258,98.1,256.4,98.1,256.4,98.1"/>
					</g>
				</g>
			</g>
			<path class="st4" d="M23,207h526v373c0,145.3-117.7,263-263,263S23,725.3,23,580V207z"/>
			<path id="Bogen" class="st5" d="M201,462h10v8h10v-8h10v8h10v-8h10v8h10v-8h10v8h10v-8h10v8h10v-8h10v8h10v-8h10v8h10v-8h10v8h10
				v-8h10v123c-16.3-39.6-67.6-60.6-114.6-46.8c-26,7.6-46.4,24.9-55.4,46.8V462z M201,480h170v38H201"/>
			<g>
				<defs>
					<path id="SVGID_1_" d="M26,210h520v370c0,143.6-116.4,260-260,260S26,723.6,26,580V210z"/>
				</defs>
				<clipPath id="SVGID_2_">
					<use xlink:href="#SVGID_1_"  style="overflow:visible;"/>
				</clipPath>
				<g class="st6">
					<g>
						<path id="Bogen_1_" class="st5" d="M-58,462h10v8h10v-8h10v8h10v-8h10v8H2v-8h10v8h10v-8h10v8h10v-8h10v8h10v-8h10v8h10v-8h10
							v8h10v-8h10v123c-16.3-39.6-67.6-60.6-114.6-46.8c-26,7.6-46.4,24.9-55.4,46.8V462z M-58,480h170v38H-58"/>
					</g>
					<g>
						<path id="Bogen_2_" class="st5" d="M460,462h10v8h10v-8h10v8h10v-8h10v8h10v-8h10v8h10v-8h10v8h10v-8h10v8h10v-8h10v8h10v-8
							h10v8h10v-8h10v123c-16.3-39.6-67.6-60.6-114.6-46.8c-26,7.6-46.4,24.9-55.4,46.8V462z M460,480h170v38H460"/>
					</g>
				</g>
			</g>
			<g id="BTurm">
				<g>
					<path class="st5" d="M112,622V458h92v164l10,38H102L112,622l46-24l46,24H112z M128,584v-66c0-16.6,13.4-30,30-30s30,13.4,30,30
						v66H128z M112,458c-0.8-6.9-5.4-12.7-12-15v-54l-4-3l28-14h68l28,14l-4,3v54c-6.6,2.3-11.2,8.1-12,15H112z M100,389h116v48H100
						 M124,372v-50l34-88l34,88v50H124z M120,447h74"/>
					<path class="st5" d="M119,322v-26h14v8h10v-8h10v8h10v-8h10v8h10v-8h14v26H119z M130,458v-21c0-3.3,2.7-6,6-6s6,2.7,6,6v21H130
						z M152,458v-21c0-3.3,2.7-6,6-6s6,2.7,6,6v21H152z M174,458v-21c0-3.3,2.7-6,6-6s6,2.7,6,6v21H174z"/>
					<path class="st1" d="M138,304v18h4v50l-22,17v69c0,9.9-3.6,18-8,18l0,0 M178,304v18h-4v50l22,17v69c0,9.9,3.6,18,8,18l0,0"/>
					<circle class="st5" cx="158" cy="234" r="10.5"/>
				</g>
				<path d="M136,534v-23c0-2.8,2.2-5,5-5s5,2.2,5,5v23H136z M152,534v-30c0-3.3,2.7-6,6-6s6,2.7,6,6v30H152z M170,534v-23
					c0-2.8,2.2-5,5-5s5,2.2,5,5v23H170z"/>
				<circle cx="136" cy="410" r="8"/>
				<circle cx="158" cy="410" r="8"/>
				<circle cx="180" cy="410" r="8"/>
			</g>
			<g>
				<g id="BTurm_1_">
					<g>
						<path class="st5" d="M368,622V458h92v164l10,38H358L368,622l46-24l46,24H368z M384,584v-66c0-16.6,13.4-30,30-30
							s30,13.4,30,30v66H384z M368,458c-0.8-6.9-5.4-12.7-12-15v-54l-4-3l28-14h68l28,14l-4,3v54c-6.6,2.3-11.2,8.1-12,15H368z
							 M356,389h116v48H356 M380,372v-50l34-88l34,88v50H380z M376,447h74"/>
						<path class="st5" d="M375,322v-26h14v8h10v-8h10v8h10v-8h10v8h10v-8h14v26H375z M386,458v-21c0-3.3,2.7-6,6-6s6,2.7,6,6v21
							H386z M408,458v-21c0-3.3,2.7-6,6-6s6,2.7,6,6v21H408z M430,458v-21c0-3.3,2.7-6,6-6s6,2.7,6,6v21H430z"/>
						<path class="st1" d="M394,304v18h4v50l-22,17v69c0,9.9-3.6,18-8,18l0,0 M434,304v18h-4v50l22,17v69c0,9.9,3.6,18,8,18l0,0"/>
						<circle class="st5" cx="414" cy="234" r="10.5"/>
					</g>
					<path d="M392,534v-23c0-2.8,2.2-5,5-5s5,2.2,5,5v23H392z M408,534v-30c0-3.3,2.7-6,6-6s6,2.7,6,6v30H408z M426,534v-23
						c0-2.8,2.2-5,5-5s5,2.2,5,5v23H426z"/>
					<circle cx="392" cy="410" r="8"/>
					<circle cx="414" cy="410" r="8"/>
					<circle cx="436" cy="410" r="8"/>
				</g>
			</g>
			<g>
				<defs>
					<path id="SVGID_3_" d="M26,210h520v370c0,143.6-116.4,260-260,260S26,723.6,26,580V210z"/>
				</defs>
				<clipPath id="SVGID_4_">
					<use xlink:href="#SVGID_3_"  style="overflow:visible;"/>
				</clipPath>
				<g class="st7">
					<g id="Welle">
						<path class="st5" d="M6,649c15,0,20-14,35-14s20,14,35,14s20-14,35-14s20,14,35,14s20-14,35-14s20,14,35,14s20-14,35-14
							s20,14,35,14s20-14,35-14s20,14,35,14s20-14,35-14s20,14,35,14s20-14,35-14s20,14,35,14s20-14,35-14s20,14,35,14v33
							c-15,0-20-14-35-14s-20,14-35,14s-20-14-35-14s-20,14-35,14s-20-14-35-14s-20,14-35,14s-20-14-35-14s-20,14-35,14
							s-20-14-35-14s-20,14-35,14s-20-14-35-14s-20,14-35,14s-20-14-35-14s-20,14-35,14s-20-14-35-14s-20,14-35,14V649z"/>
					</g>
					<g>
						<g id="Welle_1_">
							<path class="st5" d="M6,651c15,0,20-14,35-14s20,14,35,14s20-14,35-14s20,14,35,14s20-14,35-14s20,14,35,14s20-14,35-14
								s20,14,35,14s20-14,35-14s20,14,35,14s20-14,35-14s20,14,35,14s20-14,35-14s20,14,35,14s20-14,35-14s20,14,35,14v33
								c-15,0-20-14-35-14s-20,14-35,14s-20-14-35-14s-20,14-35,14s-20-14-35-14s-20,14-35,14s-20-14-35-14s-20,14-35,14
								s-20-14-35-14s-20,14-35,14s-20-14-35-14s-20,14-35,14s-20-14-35-14s-20,14-35,14s-20-14-35-14s-20,14-35,14V651z"/>
						</g>
					</g>
					<g>
						<g id="Welle_2_">
							<path class="st5" d="M6,693c15,0,20-14,35-14s20,14,35,14s20-14,35-14s20,14,35,14s20-14,35-14s20,14,35,14s20-14,35-14
								s20,14,35,14s20-14,35-14s20,14,35,14s20-14,35-14s20,14,35,14s20-14,35-14s20,14,35,14s20-14,35-14s20,14,35,14v33
								c-15,0-20-14-35-14s-20,14-35,14s-20-14-35-14s-20,14-35,14s-20-14-35-14s-20,14-35,14s-20-14-35-14s-20,14-35,14
								s-20-14-35-14s-20,14-35,14s-20-14-35-14s-20,14-35,14s-20-14-35-14s-20,14-35,14s-20-14-35-14s-20,14-35,14V693z"/>
						</g>
					</g>
					<g>
						<g id="Welle_3_">
							<path class="st5" d="M6,735c15,0,20-14,35-14s20,14,35,14s20-14,35-14s20,14,35,14s20-14,35-14s20,14,35,14s20-14,35-14
								s20,14,35,14s20-14,35-14s20,14,35,14s20-14,35-14s20,14,35,14s20-14,35-14s20,14,35,14s20-14,35-14s20,14,35,14v33
								c-15,0-20-14-35-14s-20,14-35,14s-20-14-35-14s-20,14-35,14s-20-14-35-14s-20,14-35,14s-20-14-35-14s-20,14-35,14
								s-20-14-35-14s-20,14-35,14s-20-14-35-14s-20,14-35,14s-20-14-35-14s-20,14-35,14s-20-14-35-14s-20,14-35,14V735z"/>
						</g>
					</g>
					<g>
						<g id="Welle_4_">
							<path class="st5" d="M6,777c15,0,20-14,35-14s20,14,35,14s20-14,35-14s20,14,35,14s20-14,35-14s20,14,35,14s20-14,35-14
								s20,14,35,14s20-14,35-14s20,14,35,14s20-14,35-14s20,14,35,14s20-14,35-14s20,14,35,14s20-14,35-14s20,14,35,14v33
								c-15,0-20-14-35-14s-20,14-35,14s-20-14-35-14s-20,14-35,14s-20-14-35-14s-20,14-35,14s-20-14-35-14s-20,14-35,14
								s-20-14-35-14s-20,14-35,14s-20-14-35-14s-20,14-35,14s-20-14-35-14s-20,14-35,14s-20-14-35-14s-20,14-35,14V777z"/>
						</g>
					</g>
					<g transform="translate(0,85)">
						<path class="st5" d="M146,734c15,0,20-14,35-14s20,14,35,14s20-14,35-14s20,14,35,14s20-14,35-14s20,14,35,14s20-14,35-14
							s20,14,35,14l-141.4,47L146,734z"/>
					</g>
				</g>
			</g>
		</g>
	</g>
</g>
</svg>
